<?xml version="1.0" encoding="utf-8"?>
<!-- Generator: Adobe Illustrator 24.3.0, SVG Export Plug-In . SVG Version: 6.00 Build 0)  -->
<svg version="1.1" id="Layer_1" xmlns="http://www.w3.org/2000/svg" xmlns:xlink="http://www.w3.org/1999/xlink" x="0px" y="0px"
	 viewBox="0 0 512 512" style="enable-background:new 0 0 512 512;" xml:space="preserve">
<style type="text/css">
	.st0{fill:#5294CF;}
	.st1{fill:#1F5B98;}
	.st2{fill:#2D72B8;}
	.st3{fill:#1A476F;}
</style>
<g id="XMLID_1_">
	<polyline id="XMLID_3_" class="st0" points="322.07,512 328.38,512 429.94,461.22 431.62,458.84 431.62,53.16 429.94,50.78 
		328.38,0 322.07,0 322.07,512 	"/>
	<polyline id="XMLID_4_" class="st1" points="189.93,512 183.62,512 82.06,461.22 79.96,457.57 78.97,55.27 82.06,50.78 183.62,0 
		189.93,0 189.93,512 	"/>
	<rect id="XMLID_5_" x="183.76" class="st2" width="144.48" height="512"/>
	<polyline id="XMLID_6_" class="st3" points="483.1,244.5 479.74,243.8 430.64,239.17 429.94,239.59 328.24,235.52 183.76,235.52 
		82.06,239.59 82.06,162.02 81.92,162.02 82.06,161.74 183.76,138.17 328.24,138.17 429.94,161.74 467.39,181.65 467.39,168.89 
		483.1,167.21 481.56,163.98 431.48,128.21 429.94,128.63 328.24,97.21 183.76,97.21 82.06,128.63 82.06,50.78 28.9,113.06 
		28.9,167.49 29.32,167.21 44.61,168.89 44.61,181.94 28.9,190.35 28.9,244.5 29.32,244.5 44.61,244.78 44.61,267.5 31.42,267.64 
		28.9,267.36 28.9,321.65 44.61,330.06 44.61,343.25 29.46,344.93 28.9,344.51 28.9,398.8 82.06,461.22 82.06,383.23 183.76,414.79 
		328.24,414.79 430.22,383.23 431.62,383.79 481,348.58 483.1,345.07 467.39,343.25 467.39,330.35 465.29,329.5 431.48,347.74 
		430.22,350.26 328.24,373.69 328.24,373.69 183.76,373.69 183.76,373.69 82.06,350.12 82.06,272.41 183.76,276.34 183.76,276.48 
		328.24,276.48 429.94,272.41 432.32,273.39 479.88,269.33 483.1,267.64 467.39,267.5 467.39,244.78 483.1,244.5 	"/>
	<polyline id="XMLID_7_" class="st2" points="429.94,383.23 429.94,461.22 483.1,398.8 483.1,344.79 430.22,383.23 429.94,383.23 	
		"/>
	<polyline id="XMLID_8_" class="st2" points="429.94,350.4 430.22,350.26 483.1,321.79 483.1,267.5 429.94,272.41 429.94,350.4 	"/>
	<polyline id="XMLID_9_" class="st2" points="430.22,161.88 429.94,161.74 429.94,239.59 483.1,244.5 483.1,190.07 430.22,161.88 	
		"/>
	<polyline id="XMLID_10_" class="st2" points="430.22,129.05 483.1,167.21 483.1,113.06 429.94,50.78 429.94,128.63 430.22,128.77 
		430.22,129.05 	"/>
</g>
</svg>
