<?xml version="1.0" encoding="utf-8"?>
<!-- Generator: Adobe Illustrator 26.5.0, SVG Export Plug-In . SVG Version: 6.00 Build 0)  -->
<svg version="1.1" id="Layer_1" xmlns="http://www.w3.org/2000/svg" xmlns:xlink="http://www.w3.org/1999/xlink" x="0px" y="0px"
	 viewBox="0 0 512 512" style="enable-background:new 0 0 512 512;" xml:space="preserve">
<g id="XMLID_1_">
	<path id="XMLID_9_" d="M346.92,283.71c-19.92,0-37.87,8.84-50.08,22.72l-31.28-22.3c3.37-9.12,5.19-19.08,5.19-29.32
		c0-10.1-1.82-19.78-5.05-28.9l31.28-22.02c12.2,13.89,30.02,22.58,49.94,22.58c36.75,0,66.77-29.88,66.77-66.77
		s-29.88-66.77-66.77-66.77s-66.77,29.88-66.77,66.77c0,6.59,0.98,12.91,2.81,18.94l-31.28,22.02c-13.05-16.27-31.98-27.49-53.44-31
		v-37.73c30.3-6.31,53.02-33.24,53.02-65.37c0-36.75-29.88-66.77-66.77-66.77c-36.75,0-66.77,29.88-66.77,66.77
		c0,31.7,22.16,58.21,51.76,64.95v38.29c-40.4,7.15-71.26,42.36-71.26,84.87c0,42.64,31.14,78.13,71.82,84.87v40.4
		c-29.88,6.59-52.46,33.24-52.46,65.09c0,36.75,29.88,66.77,66.77,66.77c36.75,0,66.77-29.88,66.77-66.77
		c0-31.84-22.44-58.63-52.46-65.09v-40.4c21.04-3.51,39.56-14.59,52.46-30.58l31.56,22.3c-1.68,6.03-2.67,12.2-2.67,18.8
		c0,36.75,29.88,66.77,66.77,66.77s66.77-29.88,66.77-66.77C413.69,313.59,383.81,283.71,346.92,283.71z M346.92,127.59
		c17.81,0,32.4,14.59,32.4,32.4c0,17.81-14.45,32.4-32.4,32.4c-17.96,0-32.4-14.59-32.4-32.4
		C314.65,142.18,329.1,127.59,346.92,127.59z M152.22,66.85c0-17.81,14.45-32.4,32.4-32.4c17.81,0,32.4,14.59,32.4,32.4
		s-14.45,32.4-32.4,32.4S152.22,84.67,152.22,66.85z M216.88,445.31c0,17.81-14.45,32.4-32.4,32.4c-17.81,0-32.4-14.59-32.4-32.4
		s14.45-32.4,32.4-32.4S216.88,427.5,216.88,445.31z M184.62,299.99c-24.83,0-45.17-20.2-45.17-45.17
		c0-24.83,20.2-45.17,45.17-45.17c24.83,0,45.17,20.2,45.17,45.17C229.65,279.79,209.45,299.99,184.62,299.99z M346.92,382.75
		c-17.81,0-32.4-14.59-32.4-32.4s14.45-32.4,32.4-32.4c17.96,0,32.4,14.59,32.4,32.4C379.32,368.3,364.73,382.75,346.92,382.75z"/>
</g>
</svg>
