<?xml version="1.0" encoding="utf-8"?>
<!-- Generator: Adobe Illustrator 26.5.0, SVG Export Plug-In . SVG Version: 6.00 Build 0)  -->
<svg version="1.1" id="Layer_1" xmlns="http://www.w3.org/2000/svg" xmlns:xlink="http://www.w3.org/1999/xlink" x="0px" y="0px"
	 viewBox="0 0 512 512" style="enable-background:new 0 0 512 512;" xml:space="preserve">
<style type="text/css">
	.st0{fill:#5059C9;}
	.st1{fill:#7B83EB;}
	.st2{fill:#6E76D3;}
	.st3{fill:#6269BC;}
	.st4{fill:#B7B7B7;}
	.st5{fill:#585EA9;}
	.st6{fill:#464B87;}
	.st7{fill:#757575;}
	.st8{fill:#383C6C;}
	.st9{fill:#E5E5E5;}
	.st10{fill:#929292;}
	.st11{fill:url(#SVGID_1_);}
	.st12{fill:#FFFFFF;}
</style>
<g>
	<path class="st0" d="M357.12,196.47h132.25c12.5,0,22.63,10.13,22.63,22.63v120.47c0,45.93-37.23,83.14-83.14,83.14h-0.39
		c-45.93,0-83.15-37.21-83.15-83.14v-0.01V208.28C345.3,201.76,350.6,196.47,357.12,196.47z"/>
	<circle class="st0" cx="446.51" cy="119.06" r="53.58"/>
	<path class="st1" d="M279.82,17.86c42.74,0,77.39,34.65,77.39,77.39s-34.65,77.39-77.39,77.39s-77.39-34.65-77.39-77.39
		S237.06,17.86,279.82,17.86"/>
	<path class="st1" d="M383.02,196.47H164.71c-12.34,0.31-22.11,10.55-21.83,22.89v137.4c-1.73,74.09,56.9,135.57,130.97,137.38
		c74.09-1.81,132.7-63.29,130.97-137.38v-137.4C405.13,207.02,395.36,196.78,383.02,196.47"/>
	<path class="st2" d="M285.77,196.47h-11.91V377.1l0,0v23.82c0,2.82-0.56,5.61-1.67,8.22l0,0l0,0c8.16-3.37,13.51-11.29,13.58-20.13
		V196.47"/>
	<path class="st3" d="M272.19,409.12c-2.6,1.09-5.39,1.67-8.22,1.67H153.35c1.67,4.05,3.58,7.98,5.6,11.91h93.11
		C260.9,422.65,268.84,417.29,272.19,409.12 M149.2,398.88c1.19,4.05,2.5,7.86,4.17,11.91C151.82,406.86,150.39,402.94,149.2,398.88
		 M142.88,357.07c0.04,14.17,2.17,28.27,6.31,41.82C145.06,385.33,142.94,371.24,142.88,357.07"/>
	<path class="st4" d="M142.88,219.35v137.38c0,0.01,0,0.03,0,0.03s0,0,0-0.01V219.35C142.88,219.36,142.88,219.36,142.88,219.35
		 M164.67,196.47L164.67,196.47c-12.15,0.29-21.78,10.24-21.8,22.32c0,0.06,0,0.13,0,0.18c0-0.06,0-0.1,0-0.15c0-0.01,0-0.01,0-0.03
		C142.88,206.71,152.53,196.76,164.67,196.47"/>
	<path class="st5" d="M142.88,218.81c0,0.06,0,0.1,0,0.15c0,0.11,0,0.24,0,0.35v0.03c0,0,0,0,0,0.01v137.4c0,0,0,0,0,0.01
		c0,0.1,0,0.2,0,0.31c0.04,14.17,2.17,28.27,6.31,41.82l0,0l0,0c1.19,4.05,2.62,7.98,4.17,11.91l0,0l0,0h110.62
		c2.82,0,5.61-0.56,8.22-1.67l0,0c1.09-2.6,1.67-5.39,1.67-8.22V377.1c-0.08,11.99-9.79,21.7-21.78,21.78H149.21
		c-4.17-13.66-6.3-27.87-6.31-42.15V219.32C142.88,219.15,142.88,218.98,142.88,218.81"/>
	<path class="st6" d="M273.86,196.47h-11.91V377.1c-0.08,11.99-9.79,21.7-21.78,21.78H149.2c-4.17-13.66-6.3-27.87-6.31-42.15
		V219.32c0-0.17,0-0.34,0-0.52l0,0c0,0.17,0,0.34,0,0.52v137.41c0.01,14.28,2.15,28.49,6.31,42.15h102.88
		c11.99-0.08,21.7-9.79,21.78-21.78V196.47"/>
	<path class="st7" d="M261.95,196.47h-97.28c-12.15,0.29-21.78,10.24-21.8,22.32c0,0.01,0,0.01,0,0.03
		c0.01-12.11,9.66-22.05,21.83-22.35H261.95"/>
	<path class="st8" d="M261.95,196.47h-97.24c-12.16,0.29-21.83,10.25-21.83,22.35c0,0.17,0,0.34,0,0.52v137.41
		c0.01,14.28,2.15,28.49,6.31,42.15h90.97c11.99-0.08,21.7-9.79,21.78-21.78V196.47"/>
	<path class="st9" d="M267.57,171.68c1.54,0.25,3.09,0.45,4.64,0.59l0,0C270.66,172.14,269.12,171.95,267.57,171.68
		C267.57,171.7,267.57,171.7,267.57,171.68"/>
	<path class="st2" d="M263.98,113.12h-59.42c0.9,4.08,2.16,8.07,3.82,11.91c9.55,22.86,29.47,39.77,53.58,45.49
		c1.85,0.48,3.73,0.87,5.61,1.18l0,0c-1.89-0.31-3.76-0.7-5.62-1.18c-11.31-2.68-21.69-7.81-30.51-14.87c-10-8-18-18.46-23.08-30.61
		h31.79c0.01,0,0.03,0,0.03,0h11.87c12.02,0.04,21.74,9.78,21.78,21.78v25.6l0,0c-0.55-0.04-1.09-0.08-1.64-0.13l0,0
		c0.55,0.06,1.09,0.1,1.64,0.13c2.02,0.13,3.93,0.24,5.95,0.24s3.93-0.13,5.95-0.24v-37.51
		C285.72,122.89,275.99,113.16,263.98,113.12"/>
	<path class="st10" d="M267.57,171.7c1.54,0.25,3.09,0.45,4.64,0.59C270.66,172.13,269.1,171.93,267.57,171.7"/>
	<path class="st6" d="M252.07,125.03h-11.87c11.99,0.07,21.71,9.79,21.76,21.78v23.69c-11.31-2.68-21.69-7.81-30.51-14.87
		c8.82,7.06,19.2,12.19,30.51,14.87c1.85,0.48,3.73,0.87,5.62,1.18c1.53,0.24,3.07,0.43,4.64,0.59c0.55,0.06,1.09,0.1,1.64,0.13
		v-25.6C273.81,134.8,264.08,125.07,252.07,125.03"/>
	<path class="st5" d="M240.16,125.03h-31.79c5.08,12.15,13.07,22.61,23.08,30.61c-10-8-18-18.46-23.08-30.61l0,0l0,0h31.83
		C240.19,125.03,240.18,125.03,240.16,125.03"/>
	<path class="st8" d="M240.21,125.03h-31.83c5.08,12.15,13.07,22.61,23.08,30.61c8.82,7.06,19.2,12.19,30.51,14.87v-23.69
		C261.91,134.8,252.2,125.08,240.21,125.03"/>
	
		<linearGradient id="SVGID_1_" gradientUnits="userSpaceOnUse" x1="6.5092" y1="505.7718" x2="6.7389" y2="505.7718" gradientTransform="matrix(744.1345 1288.8104 -1288.8104 744.1345 647045.75 -384643.375)">
		<stop  offset="0" style="stop-color:#5A62C3"/>
		<stop  offset="0.5" style="stop-color:#4D55BD"/>
		<stop  offset="1" style="stop-color:#3940AB"/>
	</linearGradient>
	<path class="st11" d="M21.83,125.03h218.31c12.05,0,21.83,9.78,21.83,21.83v218.31c0,12.05-9.78,21.83-21.83,21.83H21.83
		C9.78,386.99,0,377.21,0,365.16V146.85C0,134.79,9.78,125.03,21.83,125.03z"/>
	<polygon class="st12" points="188.42,208.11 144.78,208.11 144.78,326.94 116.97,326.94 116.97,208.11 73.53,208.11 73.53,185.06 
		188.42,185.06 	"/>
</g>
</svg>
