<?xml version="1.0" encoding="utf-8"?>
<!-- Generator: Adobe Illustrator 27.2.0, SVG Export Plug-In . SVG Version: 6.00 Build 0)  -->
<svg version="1.1" id="Layer_1" xmlns="http://www.w3.org/2000/svg" xmlns:xlink="http://www.w3.org/1999/xlink" x="0px" y="0px"
	 viewBox="0 0 512 512" style="enable-background:new 0 0 512 512;" xml:space="preserve">
<style type="text/css">
	.st0{fill:#4DABCF;}
	.st1{fill:#4D77CF;}
</style>
<g>
	<polygon class="st0" points="220.04,104.02 134.49,60.84 40.6,107.69 128.46,151.82 	"/>
	<polygon class="st0" points="259.25,123.81 348.95,169.09 255.89,215.82 167.89,171.62 	"/>
	<polygon class="st0" points="379.05,61.49 471.19,107.69 388.78,149.08 298.9,103.75 	"/>
	<polygon class="st0" points="339.39,41.59 256.43,0 174.37,40.95 259.85,84.06 	"/>
	<polygon class="st0" points="274.53,398.8 274.53,512 375.03,461.85 374.91,348.6 	"/>
	<polygon class="st0" points="374.88,309.08 374.77,197.02 274.53,246.85 274.53,358.94 	"/>
	<polygon class="st0" points="495.52,288.08 495.52,401.72 409.81,444.5 409.75,331.37 	"/>
	<polygon class="st0" points="495.52,248.34 495.52,136.99 409.65,179.68 409.72,291.96 	"/>
	<path class="st1" d="M239.05,246.85l-67.69-34.03v147.09c0,0-82.78-176.14-90.45-191.96c-0.99-2.04-5.06-4.28-6.1-4.82
		c-14.84-7.79-58.34-29.82-58.34-29.82v259.87l60.17,32.16V289.5c0,0,81.9,157.39,82.73,159.1c0.83,1.72,9.05,18.31,17.84,24.13
		c11.7,7.74,61.85,37.9,61.85,37.9L239.05,246.85z"/>
</g>
</svg>
