<?xml version="1.0" encoding="utf-8"?>
<!-- Generator: Adobe Illustrator 26.5.0, SVG Export Plug-In . SVG Version: 6.00 Build 0)  -->
<svg version="1.1" id="Layer_1" xmlns="http://www.w3.org/2000/svg" xmlns:xlink="http://www.w3.org/1999/xlink" x="0px" y="0px"
	 viewBox="0 0 512 512" style="enable-background:new 0 0 512 512;" xml:space="preserve">
<style type="text/css">
	.st0{fill:#CC0000;}
</style>
<g id="XMLID_1_">
	<path id="XMLID_2_" class="st0" d="M219.39,316.86c0,0,22.58-1.96,22.58-31.14s-27.35-31.84-27.35-31.84h-49.38v92.16h24.83v-22.16
		l21.46,22.16h36.75L219.39,316.86z M209.85,298.06h-19.78v-21.04h19.92c0,0,5.61,2.1,5.61,10.52S209.85,298.06,209.85,298.06z
		 M303.27,254.44h-25.25c-17.96,0-23.99,16.27-23.99,23.99v67.47h25.25v-16.13h23.71v16.13h24.41v-67.47
		C327.26,258.93,309.44,254.44,303.27,254.44z M302.85,303.67h-23.71v-22.3c0,0,0-5.05,7.86-5.05h8.7c7.01,0,7.15,5.05,7.15,5.05
		L302.85,303.67L302.85,303.67z M338.76,254.44h26.23v91.46h-26.23V254.44z M401.88,322.33v-67.75h-26.09v67.75v23.71h26.09h35.21
		v-23.71H401.88z M445.79,322.61v23.43h42.22c8.7,0,23.57-6.31,23.99-23.99v-8.98c0-15.15-12.34-23.99-23.99-23.99h-21.04v-10.8
		h41.66v-23.57h-39.98c-10.38,0-24.13,8.56-24.13,24.41v8.14c0,15.85,13.75,23.99,24.13,23.99c29.04,0.14-7.01,0,19.92,0v11.36
		H445.79z"/>
	<path id="XMLID_10_" class="st0" d="M8.98,345.76h101.98c0,0-19.5-88.93,45.03-124.98c14.03-6.87,58.92-32.4,132.28,21.88
		c2.38-1.96,4.49-3.51,4.49-3.51s-67.19-67.05-141.96-59.48c-37.59,3.37-83.88,37.59-110.96,82.76
		C12.91,307.6,8.98,345.76,8.98,345.76z M221.63,186.82l0.56-8.7c-1.12-0.7-4.35-2.24-12.48-4.49l-0.56,8.56
		C213.36,183.6,217.56,185.14,221.63,186.82z M209.43,214.18l-0.56,8.14c4.21,0.14,8.56,0.7,12.76,1.54l0.56-8
		C217.71,215.02,213.5,214.46,209.43,214.18z M161.6,173.92h1.26l-2.52-7.86c-4.07,0-8.14,0.28-12.34,0.84l2.38,7.57
		C154.02,174.06,157.81,173.92,161.6,173.92z M167.77,221.47l2.95,8.98c3.79-1.82,7.43-3.37,11.22-4.49l-2.81-8.56
		C174.78,218.53,170.99,220.07,167.77,221.47z M109.13,187.53l-5.75-8.98c-3.23,1.68-6.59,3.51-10.1,5.61l5.89,8.98
		C102.54,191.03,105.77,189.07,109.13,187.53z M135.64,245.6l6.17,9.26c2.24-3.23,4.77-6.17,7.57-9.12l-5.75-8.84
		C140.69,239.71,137.89,242.65,135.64,245.6z M116.85,287.12l10.52,8.28c0.56-5.05,1.4-10.1,2.67-15.15l-9.26-7.29
		C119.09,277.72,117.97,282.49,116.85,287.12z M60.32,225.82l-9.12-8c-3.37,3.23-6.59,6.45-9.54,9.68l9.96,8.56
		C54.29,232.55,57.23,229.05,60.32,225.82z M21.32,283.61l-14.87-5.47c-2.38,5.61-5.19,12.06-6.45,15.43l14.87,5.47
		C16.55,294.7,19.22,288.38,21.32,283.61z M114.88,319.94c0.28,6.87,0.84,12.34,1.54,16.27l15.43,5.61
		c-1.12-5.05-2.38-10.66-3.09-16.83L114.88,319.94z"/>
</g>
</svg>
