<?xml version="1.0" encoding="utf-8"?>
<!-- Generator: Adobe Illustrator 24.1.1, SVG Export Plug-In . SVG Version: 6.00 Build 0)  -->
<svg version="1.1" id="Layer_1" xmlns="http://www.w3.org/2000/svg" xmlns:xlink="http://www.w3.org/1999/xlink" x="0px" y="0px"
	 viewBox="0 0 512 512" style="enable-background:new 0 0 512 512;" xml:space="preserve">
<style type="text/css">
	.st0{fill-rule:evenodd;clip-rule:evenodd;fill:#00AFF0;}
</style>
<g>
	<path class="st0" d="M257.1,402.9c-85.9,0-124.3-42.2-124.3-73.9c0-16.2,12-27.6,28.5-27.6c36.8,0,27.3,52.8,95.8,52.8
		c35.1,0,54.5-19.1,54.5-38.6c0-11.7-5.8-24.7-28.9-30.4l-76.4-19.1c-61.5-15.4-72.7-48.7-72.7-79.9c0-64.9,61.1-89.3,118.5-89.3
		c52.9,0,115.2,29.2,115.2,68.2c0,16.7-14.4,26.4-31,26.4c-31.4,0-25.6-43.4-88.8-43.4c-31.4,0-48.7,14.2-48.7,34.5
		c0,20.3,24.8,26.8,46.3,31.7l56.6,12.6c61.9,13.8,77.6,50,77.6,84C379.3,363.5,338.8,402.9,257.1,402.9 M493.9,298.6l-0.4,2.7
		l-0.9-5.1L493.9,298.6c2.6-14.4,4-29.1,4-43.8c0-32.6-6.4-64.3-19-94.1c-12.2-28.8-29.6-54.6-51.8-76.9
		C404.9,61.6,379,44.2,350.2,32c-29.8-12.6-61.5-19-94.1-19c-15.4,0-30.8,1.4-45.8,4.3l-0.1,0l2.5,1.3l-5.1-0.8l2.6-0.5
		C189.7,6.5,166.5,0.6,143.1,0.6c-38.2,0-74.2,14.9-101.2,41.9c-27,27-41.9,63-41.9,101.2c0,24.3,6.3,48.2,18,69.4l0.4-2.6l0.9,5.1
		l-1.3-2.4c-2.4,13.7-3.6,27.7-3.6,41.7c0,32.6,6.4,64.3,19,94.1c12.2,28.8,29.6,54.6,51.8,76.9c22.2,22.2,48.1,39.6,76.9,51.8
		c29.8,12.6,61.5,19,94.1,19c14.2,0,28.4-1.3,42.3-3.8l-2.5-1.3l5.2,0.9l-2.7,0.4c21.4,12.1,45.6,18.6,70.4,18.6
		c38.3,0,74.2-14.9,101.2-41.9c27-27,41.9-63,41.9-101.2C512,343.8,505.7,319.8,493.9,298.6"/>
</g>
</svg>
